<svg width="30" height="30" viewBox="0 0 30 30" fill="none" xmlns="http://www.w3.org/2000/svg">
<g clip-path="url(#clip0_671_5)">
<path d="M5.35706 11.7856V10.7141C5.35706 8.1567 6.373 5.704 8.18139 3.89562C9.98977 2.08723 12.4425 1.07129 14.9999 1.07129C17.5574 1.07129 20.0101 2.08723 21.8184 3.89562C23.6268 5.704 24.6428 8.1567 24.6428 10.7141V11.7856M10.7142 18.2141V22.4999M19.2856 18.2141V22.4999M28.6285 14.1856C28.6651 13.8865 28.6382 13.583 28.5496 13.295C28.461 13.007 28.3126 12.7409 28.1142 12.5141C27.9134 12.2856 27.6662 12.1024 27.3891 11.9768C27.112 11.8511 26.8113 11.786 26.5071 11.7856H3.49278C3.18852 11.786 2.88784 11.8511 2.61073 11.9768C2.33362 12.1024 2.08644 12.2856 1.88563 12.5141C1.68721 12.7409 1.53885 13.007 1.45023 13.295C1.36161 13.583 1.33473 13.8865 1.37135 14.1856L2.97849 27.0427C3.04165 27.5654 3.29501 28.0465 3.69024 28.3943C4.08546 28.7421 4.59489 28.9322 5.12135 28.9284H24.9213C25.4478 28.9322 25.9572 28.7421 26.3525 28.3943C26.7477 28.0465 27.001 27.5654 27.0642 27.0427L28.6285 14.1856Z" stroke="#361041" stroke-width="2.14286" stroke-linecap="round" stroke-linejoin="round"/>
</g>
<defs>
<clipPath id="clip0_671_5">
<rect width="30" height="30" fill="white"/>
</clipPath>
</defs>
</svg>
