<svg width="24" height="24" viewBox="0 0 24 24" fill="none" xmlns="http://www.w3.org/2000/svg">
<path d="M15.5431 9.51711C15.6139 9.44639 15.6699 9.36221 15.7077 9.26953C15.7454 9.17685 15.7643 9.07754 15.7631 8.97745C15.7619 8.87736 15.7407 8.77853 15.7008 8.68677C15.6608 8.595 15.6028 8.51217 15.5303 8.44315C15.4579 8.37413 15.3723 8.32032 15.2787 8.28489C15.1851 8.24946 15.0853 8.23312 14.9853 8.23685C14.8853 8.24057 14.787 8.26428 14.6963 8.30657C14.6056 8.34887 14.5242 8.40889 14.4571 8.48311L12.1431 10.9131L11.5431 10.2831C11.4759 10.2089 11.3946 10.1489 11.3038 10.1066C11.2131 10.0643 11.1149 10.0406 11.0148 10.0368C10.9148 10.0331 10.8151 10.0495 10.7214 10.0849C10.6278 10.1203 10.5423 10.1741 10.4698 10.2432C10.3973 10.3122 10.3393 10.395 10.2994 10.4868C10.2594 10.5785 10.2382 10.6774 10.237 10.7775C10.2358 10.8775 10.2547 10.9768 10.2925 11.0695C10.3303 11.1622 10.3862 11.2464 10.4571 11.3171L11.6001 12.5171C11.6701 12.5906 11.7543 12.6492 11.8477 12.6891C11.941 12.7291 12.0415 12.7498 12.1431 12.7498C12.2446 12.7498 12.3451 12.7291 12.4384 12.6891C12.5318 12.6492 12.616 12.5906 12.6861 12.5171L15.5431 9.51711Z" fill="#DB7093"/>
<path fill-rule="evenodd" clip-rule="evenodd" d="M1.29305 2.75109C1.35899 2.56347 1.49674 2.40972 1.67601 2.32365C1.85529 2.23757 2.06141 2.22622 2.24905 2.29209L2.55005 2.39809C3.16705 2.61509 3.69005 2.79909 4.10305 3.00109C4.54305 3.21809 4.92105 3.48409 5.20505 3.90009C5.48705 4.31209 5.60405 4.76509 5.65705 5.26209L5.66805 5.37009H17.1201C17.9391 5.37009 18.7731 5.37009 19.4601 5.44709C19.8101 5.48609 20.1571 5.54809 20.4631 5.65609C20.7631 5.76109 21.0941 5.93409 21.3291 6.24009C21.7111 6.73609 21.7781 7.31409 21.7421 7.90009C21.7071 8.45809 21.5691 9.15209 21.4041 9.97709L21.3941 10.0301L21.3921 10.0341L20.8841 12.5041C20.7341 13.2301 20.6081 13.8411 20.4451 14.3241C20.2731 14.8341 20.0351 15.2841 19.6081 15.6321C19.1811 15.9791 18.6921 16.1221 18.1571 16.1881C17.6521 16.2501 17.0271 16.2501 16.2871 16.2501H10.8801C9.53505 16.2501 8.44505 16.2501 7.58705 16.1281C6.69005 16.0011 5.93705 15.7281 5.34405 15.1021C4.79705 14.5261 4.50505 13.9141 4.35905 13.0601C4.22205 12.2601 4.20905 11.2121 4.20905 9.76009V7.03809C4.20905 6.29809 4.20705 5.80309 4.16605 5.42309C4.12605 5.06009 4.05705 4.87809 3.96605 4.74609C3.87905 4.61709 3.74605 4.49609 3.44205 4.34809C3.11905 4.19009 2.68005 4.03409 2.01205 3.79909L1.75205 3.70809C1.65895 3.67555 1.57317 3.62496 1.49964 3.55923C1.42612 3.49349 1.36627 3.4139 1.32355 3.32501C1.28082 3.23612 1.25604 3.13967 1.25064 3.04119C1.24523 2.94271 1.26031 2.84413 1.29305 2.75109ZM5.70805 6.87009V9.76009C5.70805 11.2491 5.72605 12.1581 5.83805 12.8071C5.93905 13.4021 6.11205 13.7321 6.43205 14.0701C6.70505 14.3581 7.08205 14.5421 7.79705 14.6431C8.53705 14.7481 9.52105 14.7501 10.9371 14.7501H16.2411C17.0401 14.7501 17.5711 14.7491 17.9751 14.7001C18.3571 14.6531 18.5351 14.5711 18.6601 14.4691C18.7851 14.3671 18.9001 14.2091 19.0241 13.8441C19.1541 13.4591 19.2621 12.9391 19.4241 12.1561L19.9221 9.73609V9.73409C20.1001 8.84409 20.2171 8.25209 20.2441 7.80809C20.2701 7.38609 20.2041 7.23909 20.1431 7.15809C20.0897 7.11887 20.0297 7.08941 19.9661 7.07109C19.7476 7.00228 19.5222 6.95735 19.2941 6.93709C18.6991 6.87109 17.9451 6.87009 17.0891 6.87009H5.70805ZM5.25005 19.5001C5.25005 20.0968 5.48711 20.6691 5.90906 21.0911C6.33102 21.513 6.90332 21.7501 7.50005 21.7501C8.09679 21.7501 8.66909 21.513 9.09104 21.0911C9.513 20.6691 9.75005 20.0968 9.75005 19.5001C9.75005 18.9034 9.513 18.3311 9.09104 17.9091C8.66909 17.4871 8.09679 17.2501 7.50005 17.2501C6.90332 17.2501 6.33102 17.4871 5.90906 17.9091C5.48711 18.3311 5.25005 18.9034 5.25005 19.5001ZM7.50005 20.2501C7.30114 20.2501 7.11037 20.1711 6.96972 20.0304C6.82907 19.8898 6.75005 19.699 6.75005 19.5001C6.75005 19.3012 6.82907 19.1104 6.96972 18.9698C7.11037 18.8291 7.30114 18.7501 7.50005 18.7501C7.69896 18.7501 7.88973 18.8291 8.03038 18.9698C8.17103 19.1104 8.25005 19.3012 8.25005 19.5001C8.25005 19.699 8.17103 19.8898 8.03038 20.0304C7.88973 20.1711 7.69896 20.2501 7.50005 20.2501ZM14.2501 19.5001C14.2501 19.7956 14.3083 20.0881 14.4213 20.3611C14.5344 20.6341 14.7001 20.8822 14.9091 21.0911C15.118 21.3 15.366 21.4658 15.639 21.5788C15.912 21.6919 16.2046 21.7501 16.5001 21.7501C16.7955 21.7501 17.0881 21.6919 17.3611 21.5788C17.6341 21.4658 17.8821 21.3 18.091 21.0911C18.3 20.8822 18.4657 20.6341 18.5788 20.3611C18.6919 20.0881 18.7501 19.7956 18.7501 19.5001C18.7501 18.9034 18.513 18.3311 18.091 17.9091C17.6691 17.4871 17.0968 17.2501 16.5001 17.2501C15.9033 17.2501 15.331 17.4871 14.9091 17.9091C14.4871 18.3311 14.2501 18.9034 14.2501 19.5001ZM16.5001 20.2501C16.3011 20.2501 16.1104 20.1711 15.9697 20.0304C15.8291 19.8898 15.7501 19.699 15.7501 19.5001C15.7501 19.3012 15.8291 19.1104 15.9697 18.9698C16.1104 18.8291 16.3011 18.7501 16.5001 18.7501C16.699 18.7501 16.8897 18.8291 17.0304 18.9698C17.171 19.1104 17.2501 19.3012 17.2501 19.5001C17.2501 19.699 17.171 19.8898 17.0304 20.0304C16.8897 20.1711 16.699 20.2501 16.5001 20.2501Z" fill="#DB7093"/>
</svg>
