<svg width="33" height="31" viewBox="0 0 33 31" fill="none" xmlns="http://www.w3.org/2000/svg">
<path d="M31.9554 29.5699C29.5385 25.3934 25.7441 22.4628 21.3352 21.2199C23.4788 20.1303 25.1928 18.3505 26.2011 16.1676C27.2093 13.9846 27.453 11.5257 26.8928 9.18726C26.3326 6.84886 25.0011 4.76729 23.1131 3.27819C21.2251 1.78909 18.8906 0.979248 16.4861 0.979248C14.0815 0.979248 11.747 1.78909 9.85901 3.27819C7.97102 4.76729 6.63957 6.84886 6.07934 9.18726C5.51912 11.5257 5.76278 13.9846 6.77103 16.1676C7.77929 18.3505 9.49337 20.1303 11.6369 21.2199C7.22799 22.4613 3.43365 25.3919 1.0167 29.5699C0.950336 29.6743 0.905774 29.7911 0.885696 29.9131C0.865619 30.0352 0.870441 30.1601 0.899872 30.2802C0.929304 30.4004 0.982736 30.5133 1.05696 30.6123C1.13118 30.7113 1.22465 30.7942 1.33175 30.8561C1.43885 30.918 1.55737 30.9576 1.68018 30.9726C1.80298 30.9875 1.92754 30.9774 2.04635 30.9429C2.16515 30.9085 2.27576 30.8503 2.37152 30.772C2.46728 30.6937 2.5462 30.5968 2.60354 30.4872C5.54026 25.4133 10.7288 22.3848 16.4861 22.3848C22.2433 22.3848 27.4319 25.4133 30.3686 30.4872C30.4259 30.5968 30.5049 30.6937 30.6006 30.772C30.6964 30.8503 30.807 30.9085 30.9258 30.9429C31.0446 30.9774 31.1691 30.9875 31.292 30.9726C31.4148 30.9576 31.5333 30.918 31.6404 30.8561C31.7475 30.7942 31.841 30.7113 31.9152 30.6123C31.9894 30.5133 32.0428 30.4004 32.0723 30.2802C32.1017 30.1601 32.1065 30.0352 32.0864 29.9131C32.0664 29.7911 32.0218 29.6743 31.9554 29.5699ZM7.61935 11.6836C7.61935 9.92994 8.13937 8.21566 9.11366 6.75753C10.0879 5.29941 11.4727 4.16294 13.0929 3.49184C14.7131 2.82074 16.4959 2.64515 18.2159 2.98727C19.9358 3.32939 21.5157 4.17387 22.7558 5.4139C23.9958 6.65393 24.8403 8.23383 25.1824 9.9538C25.5245 11.6738 25.3489 13.4566 24.6778 15.0768C24.0067 16.6969 22.8703 18.0817 21.4121 19.056C19.954 20.0303 18.2397 20.5503 16.4861 20.5503C14.1353 20.5475 11.8817 19.6124 10.2195 17.9502C8.55726 16.288 7.62218 14.0343 7.61935 11.6836Z" fill="#361041"/>
</svg>
