<svg width="256" height="256" viewBox="0 0 256 256" fill="none" xmlns="http://www.w3.org/2000/svg">
<path d="M229.19 213C213.38 185.68 188.56 166.51 159.72 158.38C173.742 151.252 184.954 139.61 191.549 125.331C198.144 111.051 199.738 94.9666 196.074 79.6704C192.409 64.3743 183.7 50.7581 171.35 41.0174C159 31.2767 143.729 25.9792 128 25.9792C112.271 25.9792 97.0004 31.2767 84.6504 41.0174C72.3004 50.7581 63.591 64.3743 59.9264 79.6704C56.2618 94.9666 57.8556 111.051 64.4509 125.331C71.0462 139.61 82.2586 151.252 96.28 158.38C67.44 166.5 42.62 185.67 26.81 213C26.3759 213.683 26.0844 214.446 25.9531 215.245C25.8218 216.043 25.8533 216.86 26.0458 217.646C26.2383 218.432 26.5879 219.171 27.0733 219.819C27.5588 220.466 28.1703 221.008 28.8709 221.413C29.5715 221.818 30.3467 222.077 31.15 222.175C31.9533 222.273 32.7681 222.207 33.5453 221.981C34.3224 221.756 35.046 221.375 35.6723 220.863C36.2987 220.351 36.8149 219.717 37.19 219C56.4 185.81 90.34 166 128 166C165.66 166 199.6 185.81 218.81 219C219.185 219.717 219.701 220.351 220.328 220.863C220.954 221.375 221.678 221.756 222.455 221.981C223.232 222.207 224.047 222.273 224.85 222.175C225.653 222.077 226.429 221.818 227.129 221.413C227.83 221.008 228.441 220.466 228.927 219.819C229.412 219.171 229.762 218.432 229.954 217.646C230.147 216.86 230.178 216.043 230.047 215.245C229.916 214.446 229.624 213.683 229.19 213ZM70 95.9999C70 84.5286 73.4017 73.3149 79.7748 63.7768C86.1479 54.2388 95.2063 46.8048 105.804 42.4149C116.403 38.025 128.064 36.8764 139.315 39.1144C150.566 41.3523 160.901 46.8763 169.012 54.9877C177.124 63.0992 182.648 73.4338 184.886 84.6847C187.124 95.9356 185.975 107.597 181.585 118.196C177.195 128.794 169.761 137.852 160.223 144.225C150.685 150.598 139.471 154 128 154C112.623 153.981 97.8814 147.865 87.0083 136.992C76.1352 126.119 70.0186 111.377 70 95.9999Z" fill="#361041"/>
</svg>
